# xmcd
#
# Track frame offsets:
#	150
#	23612
#	48927
#	68532
#	84581
#	108958
#	130129
#	156309
#	173606
#	197971
#	217910
#	242204
#
# Disc length: 3700 seconds
#
# Revision: 1
# Processed by: cddbd v1.5.2PL0 Copyright (c) Steve Scherf et al.
# Submitted via: audiograbber 1.83.01
#
DISCID=970e720c
DTITLE=Coyote Kings - Lucky Thirteen Master
DYEAR=2007
DGENRE=Bluesrock
TTITLE0=Backbone Shaker
TTITLE1=She Got The Motion
TTITLE2=Gris Gris
TTITLE3=Same Old Game
TTITLE4=Sweet Soul Music
TTITLE5=Trouble
TTITLE6=Baptize Me
TTITLE7=I Gotta Know
TTITLE8=Down With The Blues
TTITLE9=You Got It
TTITLE10=Show Them Your Love
TTITLE11=Sugar
EXTD=Feat. Robin Barrett
EXTT0=
EXTT1=
EXTT2=
EXTT3=
EXTT4=
EXTT5=
EXTT6=
EXTT7=
EXTT8=
EXTT9=
EXTT10=
EXTT11=
PLAYORDER=
